<!-- Generated by IcoMoon.io -->
<svg version="1.1" xmlns="http://www.w3.org/2000/svg" width="16" height="16" viewBox="0 0 16 16">
<title>envelope</title>
<path d="M14.857 13.429v-6.857c-0.188 0.214-0.393 0.411-0.616 0.589-1.277 0.982-2.563 1.982-3.804 3.018-0.67 0.563-1.5 1.25-2.429 1.25h-0.018c-0.929 0-1.759-0.688-2.429-1.25-1.241-1.036-2.527-2.036-3.804-3.018-0.223-0.179-0.429-0.375-0.616-0.589v6.857c0 0.152 0.134 0.286 0.286 0.286h13.143c0.152 0 0.286-0.134 0.286-0.286zM14.857 4.045c0-0.223 0.054-0.616-0.286-0.616h-13.143c-0.152 0-0.286 0.134-0.286 0.286 0 1.018 0.509 1.902 1.313 2.536 1.196 0.938 2.393 1.884 3.58 2.83 0.473 0.384 1.33 1.205 1.955 1.205h0.018c0.625 0 1.482-0.821 1.955-1.205 1.188-0.946 2.384-1.893 3.58-2.83 0.58-0.455 1.313-1.446 1.313-2.205zM16 3.714v9.714c0 0.786-0.643 1.429-1.429 1.429h-13.143c-0.786 0-1.429-0.643-1.429-1.429v-9.714c0-0.786 0.643-1.429 1.429-1.429h13.143c0.786 0 1.429 0.643 1.429 1.429z"></path>
</svg>
