<!-- Generated by IcoMoon.io -->
<svg version="1.1" xmlns="http://www.w3.org/2000/svg" width="24" height="24" viewBox="0 0 24 24">
<title>paper-plane</title>
<path d="M22.368 3.161c-0.413 0.145-20.785 7.325-21.187 7.466-0.341 0.12-0.416 0.414-0.012 0.575 0.481 0.193 4.555 1.825 4.555 1.825v0l2.7 1.081c0 0 13.006-9.55 13.181-9.679 0.178-0.13 0.382 0.114 0.253 0.253-0.128 0.14-9.445 10.216-9.445 10.216v0.002l-0.542 0.604 0.719 0.386c0 0 5.58 3.005 5.978 3.218 0.349 0.187 0.802 0.032 0.902-0.401 0.119-0.511 3.414-14.713 3.487-15.030 0.095-0.412-0.178-0.662-0.589-0.517zM8.4 20.594c0 0.295 0.167 0.378 0.397 0.169 0.301-0.275 3.42-3.073 3.42-3.073l-3.817-1.973v4.877z"></path>
</svg>
